<mxfile host="Electron" agent="Mozilla/5.0 (Windows NT 10.0; Win64; x64) AppleWebKit/537.36 (KHTML, like Gecko) draw.io/27.0.5 Chrome/134.0.6998.205 Electron/35.3.0 Safari/537.36" version="27.0.5">
  <diagram name="Seite-1" id="ZQmTYkAcFTUCffqxR_nn">
    <mxGraphModel dx="1426" dy="849" grid="1" gridSize="10" guides="1" tooltips="1" connect="1" arrows="1" fold="1" page="1" pageScale="1" pageWidth="827" pageHeight="1169" math="0" shadow="0">
      <root>
        <mxCell id="0" />
        <mxCell id="1" parent="0" />
        <mxCell id="VNqW8HQa9NmK4Hipr0xX-1" value="Website" style="rounded=0;whiteSpace=wrap;html=1;" parent="1" vertex="1">
          <mxGeometry x="240" y="300" width="120" height="60" as="geometry" />
        </mxCell>
        <mxCell id="VNqW8HQa9NmK4Hipr0xX-2" value="Art" style="ellipse;whiteSpace=wrap;html=1;" parent="1" vertex="1">
          <mxGeometry x="460" y="190" width="120" height="80" as="geometry" />
        </mxCell>
        <mxCell id="VNqW8HQa9NmK4Hipr0xX-19" style="rounded=0;orthogonalLoop=1;jettySize=auto;html=1;exitX=0;exitY=0.5;exitDx=0;exitDy=0;entryX=1;entryY=0.5;entryDx=0;entryDy=0;endArrow=none;startFill=0;" parent="1" source="VNqW8HQa9NmK4Hipr0xX-3" target="VNqW8HQa9NmK4Hipr0xX-2" edge="1">
          <mxGeometry relative="1" as="geometry" />
        </mxCell>
        <mxCell id="VNqW8HQa9NmK4Hipr0xX-3" value="Blog" style="ellipse;whiteSpace=wrap;html=1;" parent="1" vertex="1">
          <mxGeometry x="620" y="150" width="120" height="80" as="geometry" />
        </mxCell>
        <mxCell id="VNqW8HQa9NmK4Hipr0xX-20" style="rounded=0;orthogonalLoop=1;jettySize=auto;html=1;exitX=0;exitY=0.5;exitDx=0;exitDy=0;endArrow=none;startFill=0;entryX=1.008;entryY=0.388;entryDx=0;entryDy=0;entryPerimeter=0;" parent="1" source="VNqW8HQa9NmK4Hipr0xX-4" target="VNqW8HQa9NmK4Hipr0xX-2" edge="1">
          <mxGeometry relative="1" as="geometry">
            <mxPoint x="610" y="230" as="targetPoint" />
          </mxGeometry>
        </mxCell>
        <mxCell id="VNqW8HQa9NmK4Hipr0xX-4" value="Video" style="ellipse;whiteSpace=wrap;html=1;" parent="1" vertex="1">
          <mxGeometry x="620" y="250" width="120" height="80" as="geometry" />
        </mxCell>
        <mxCell id="VNqW8HQa9NmK4Hipr0xX-13" style="rounded=0;orthogonalLoop=1;jettySize=auto;html=1;exitX=0;exitY=0.5;exitDx=0;exitDy=0;entryX=1;entryY=0.5;entryDx=0;entryDy=0;endArrow=none;startFill=0;" parent="1" source="VNqW8HQa9NmK4Hipr0xX-5" target="VNqW8HQa9NmK4Hipr0xX-1" edge="1">
          <mxGeometry relative="1" as="geometry" />
        </mxCell>
        <mxCell id="VNqW8HQa9NmK4Hipr0xX-5" value="IDAutor FK" style="ellipse;whiteSpace=wrap;html=1;" parent="1" vertex="1">
          <mxGeometry x="470" y="350" width="120" height="80" as="geometry" />
        </mxCell>
        <mxCell id="VNqW8HQa9NmK4Hipr0xX-14" style="rounded=0;orthogonalLoop=1;jettySize=auto;html=1;exitX=0;exitY=0.5;exitDx=0;exitDy=0;entryX=1;entryY=0.5;entryDx=0;entryDy=0;endArrow=none;startFill=0;" parent="1" source="VNqW8HQa9NmK4Hipr0xX-6" target="VNqW8HQa9NmK4Hipr0xX-1" edge="1">
          <mxGeometry relative="1" as="geometry" />
        </mxCell>
        <mxCell id="VNqW8HQa9NmK4Hipr0xX-6" value="&lt;u&gt;WebSite ID PK&lt;/u&gt;" style="ellipse;whiteSpace=wrap;html=1;" parent="1" vertex="1">
          <mxGeometry x="470" y="470" width="120" height="80" as="geometry" />
        </mxCell>
        <mxCell id="VNqW8HQa9NmK4Hipr0xX-7" value="URL" style="ellipse;whiteSpace=wrap;html=1;" parent="1" vertex="1">
          <mxGeometry x="470" y="585" width="120" height="80" as="geometry" />
        </mxCell>
        <mxCell id="VNqW8HQa9NmK4Hipr0xX-16" style="rounded=0;orthogonalLoop=1;jettySize=auto;html=1;exitX=0;exitY=0.5;exitDx=0;exitDy=0;entryX=1;entryY=0.75;entryDx=0;entryDy=0;endArrow=none;startFill=0;" parent="1" source="VNqW8HQa9NmK4Hipr0xX-8" target="VNqW8HQa9NmK4Hipr0xX-1" edge="1">
          <mxGeometry relative="1" as="geometry" />
        </mxCell>
        <mxCell id="VNqW8HQa9NmK4Hipr0xX-8" value="Kanal" style="ellipse;whiteSpace=wrap;html=1;" parent="1" vertex="1">
          <mxGeometry x="470" y="690" width="120" height="80" as="geometry" />
        </mxCell>
        <mxCell id="VNqW8HQa9NmK4Hipr0xX-17" style="rounded=0;orthogonalLoop=1;jettySize=auto;html=1;exitX=0;exitY=0.5;exitDx=0;exitDy=0;entryX=1;entryY=0.5;entryDx=0;entryDy=0;endArrow=none;startFill=0;" parent="1" source="VNqW8HQa9NmK4Hipr0xX-9" target="VNqW8HQa9NmK4Hipr0xX-1" edge="1">
          <mxGeometry relative="1" as="geometry" />
        </mxCell>
        <mxCell id="VNqW8HQa9NmK4Hipr0xX-9" value="Dienst" style="ellipse;whiteSpace=wrap;html=1;" parent="1" vertex="1">
          <mxGeometry x="470" y="790" width="120" height="80" as="geometry" />
        </mxCell>
        <mxCell id="VNqW8HQa9NmK4Hipr0xX-18" style="rounded=0;orthogonalLoop=1;jettySize=auto;html=1;exitX=0;exitY=0.5;exitDx=0;exitDy=0;entryX=1;entryY=0.75;entryDx=0;entryDy=0;endArrow=none;startFill=0;" parent="1" source="VNqW8HQa9NmK4Hipr0xX-10" target="VNqW8HQa9NmK4Hipr0xX-1" edge="1">
          <mxGeometry relative="1" as="geometry" />
        </mxCell>
        <mxCell id="VNqW8HQa9NmK4Hipr0xX-10" value="Download" style="ellipse;whiteSpace=wrap;html=1;" parent="1" vertex="1">
          <mxGeometry x="470" y="900" width="120" height="80" as="geometry" />
        </mxCell>
        <mxCell id="2d8WAXMitzLmC__VHuza-1" style="rounded=0;orthogonalLoop=1;jettySize=auto;html=1;exitX=0;exitY=0.5;exitDx=0;exitDy=0;entryX=1;entryY=0.75;entryDx=0;entryDy=0;endArrow=none;startFill=0;" edge="1" parent="1" source="VNqW8HQa9NmK4Hipr0xX-11" target="VNqW8HQa9NmK4Hipr0xX-1">
          <mxGeometry relative="1" as="geometry" />
        </mxCell>
        <mxCell id="VNqW8HQa9NmK4Hipr0xX-11" value="Ausdruck" style="ellipse;whiteSpace=wrap;html=1;" parent="1" vertex="1">
          <mxGeometry x="470" y="1000" width="120" height="80" as="geometry" />
        </mxCell>
        <mxCell id="VNqW8HQa9NmK4Hipr0xX-12" style="rounded=0;orthogonalLoop=1;jettySize=auto;html=1;entryX=0;entryY=0.625;entryDx=0;entryDy=0;entryPerimeter=0;endArrow=none;startFill=0;exitX=1;exitY=0.5;exitDx=0;exitDy=0;" parent="1" source="VNqW8HQa9NmK4Hipr0xX-1" target="VNqW8HQa9NmK4Hipr0xX-2" edge="1">
          <mxGeometry relative="1" as="geometry">
            <mxPoint x="330" y="320" as="sourcePoint" />
          </mxGeometry>
        </mxCell>
        <mxCell id="VNqW8HQa9NmK4Hipr0xX-15" style="rounded=0;orthogonalLoop=1;jettySize=auto;html=1;exitX=0;exitY=0.5;exitDx=0;exitDy=0;entryX=0.992;entryY=0.617;entryDx=0;entryDy=0;entryPerimeter=0;endArrow=none;startFill=0;" parent="1" source="VNqW8HQa9NmK4Hipr0xX-7" target="VNqW8HQa9NmK4Hipr0xX-1" edge="1">
          <mxGeometry relative="1" as="geometry" />
        </mxCell>
        <mxCell id="nmyvr3roE8XNZxyhJFNA-2" style="rounded=0;orthogonalLoop=1;jettySize=auto;html=1;entryX=1;entryY=0.5;entryDx=0;entryDy=0;endArrow=none;startFill=0;" parent="1" source="nmyvr3roE8XNZxyhJFNA-1" target="VNqW8HQa9NmK4Hipr0xX-1" edge="1">
          <mxGeometry relative="1" as="geometry" />
        </mxCell>
        <mxCell id="nmyvr3roE8XNZxyhJFNA-1" value="DatumLanch" style="ellipse;whiteSpace=wrap;html=1;" parent="1" vertex="1">
          <mxGeometry x="490" y="60" width="120" height="80" as="geometry" />
        </mxCell>
        <mxCell id="2d8WAXMitzLmC__VHuza-3" style="rounded=0;orthogonalLoop=1;jettySize=auto;html=1;exitX=0;exitY=0.5;exitDx=0;exitDy=0;endArrow=none;startFill=0;" edge="1" parent="1" source="2d8WAXMitzLmC__VHuza-2">
          <mxGeometry relative="1" as="geometry">
            <mxPoint x="360" y="340" as="targetPoint" />
          </mxGeometry>
        </mxCell>
        <mxCell id="2d8WAXMitzLmC__VHuza-2" value="MedienArt" style="ellipse;whiteSpace=wrap;html=1;" vertex="1" parent="1">
          <mxGeometry x="470" y="1089" width="120" height="80" as="geometry" />
        </mxCell>
      </root>
    </mxGraphModel>
  </diagram>
</mxfile>
